<svg xmlns="http://www.w3.org/2000/svg" version="1.1" xmlns:xlink="http://www.w3.org/1999/xlink" xmlns:svgjs="http://svgjs.dev/svgjs" width="1000" height="191" viewBox="0 0 1000 191"><g transform="matrix(1,0,0,1,-0.6060606060606233,-0.09725575805933317)"><svg viewBox="0 0 396 76" data-background-color="#ffffff" preserveAspectRatio="xMidYMid meet" height="191" width="1000" xmlns="http://www.w3.org/2000/svg" xmlns:xlink="http://www.w3.org/1999/xlink"><g id="tight-bounds" transform="matrix(1,0,0,1,0.2400000000000091,0.03869862624350162)"><svg viewBox="0 0 395.52 75.92260274751303" height="75.92260274751303" width="395.52"><g><svg viewBox="0 0 395.52 75.92260274751303" height="75.92260274751303" width="395.52"><g><svg viewBox="0 0 395.52 75.92260274751303" height="75.92260274751303" width="395.52"><g><svg viewBox="0 0 395.52 75.92260274751303" height="75.92260274751303" width="395.52"><g><svg viewBox="0 0 395.52 75.92260274751303" height="75.92260274751303" width="395.52"><g transform="matrix(1,0,0,1,0,0)"><svg width="395.52" viewBox="3.200000000000001 -36.059999999999995 206.15 36.57" height="75.92260274751303" data-palette-color="#23263b"><svg></svg><g class="undefined-text-0" data-fill-palette-color="primary" id="text-0"><path d="M10.06-13.28h5.2l6.69 13.28h7.35v-0.32l-7.64-14.67c0.973-0.44 1.853-0.96 2.64-1.56 0.793-0.607 1.473-1.317 2.04-2.13v0c0.553-0.793 0.98-1.7 1.28-2.72 0.307-1.013 0.46-2.157 0.46-3.43v0c0-1.76-0.307-3.307-0.92-4.64-0.607-1.333-1.473-2.447-2.6-3.34v0c-1.14-0.9-2.507-1.58-4.1-2.04-1.593-0.467-3.377-0.7-5.35-0.7v0h-11.91v35.55h6.86zM15.14-18.85h-5.08v-11.13h5.05c0.947 0 1.787 0.113 2.52 0.34 0.733 0.227 1.35 0.553 1.85 0.98v0c0.573 0.473 1 1.07 1.28 1.79 0.287 0.727 0.43 1.56 0.43 2.5v0c0 0.787-0.11 1.497-0.33 2.13-0.22 0.633-0.54 1.177-0.96 1.63v0c-0.507 0.573-1.163 1.01-1.97 1.31-0.807 0.3-1.737 0.45-2.79 0.45zM40.48-15.58h14.6v-5.42h-14.6v-8.96h16.99v-5.59h-23.88v35.55h23.95v-5.54h-17.06zM87.89-11.13v0h-6.86c-0.067 1.073-0.247 1.993-0.54 2.76-0.293 0.76-0.69 1.387-1.19 1.88v0c-0.507 0.487-1.117 0.843-1.83 1.07-0.72 0.227-1.527 0.34-2.42 0.34v0c-0.667 0-1.273-0.077-1.82-0.23-0.547-0.153-1.04-0.393-1.48-0.72v0c-0.407-0.293-0.767-0.66-1.08-1.1-0.32-0.44-0.593-0.943-0.82-1.51v0c-0.327-0.833-0.567-1.807-0.72-2.92-0.153-1.113-0.23-2.38-0.23-3.8v0-4.83c0-1.04 0.047-2.013 0.14-2.92 0.1-0.9 0.257-1.727 0.47-2.48v0c0.273-0.96 0.643-1.8 1.11-2.52 0.46-0.727 1.023-1.287 1.69-1.68v0c0.393-0.227 0.823-0.397 1.29-0.51 0.46-0.113 0.96-0.17 1.5-0.17v0c1.007 0 1.873 0.133 2.6 0.4 0.72 0.273 1.327 0.67 1.82 1.19v0c0.467 0.533 0.827 1.2 1.08 2 0.253 0.8 0.413 1.727 0.48 2.78v0h6.84c-0.167-1.853-0.56-3.52-1.18-5-0.613-1.48-1.46-2.733-2.54-3.76v0c-1.073-1.027-2.37-1.817-3.89-2.37-1.52-0.553-3.257-0.83-5.21-0.83v0c-1.32 0-2.553 0.167-3.7 0.5-1.147 0.333-2.2 0.81-3.16 1.43v0c-1.073 0.733-2.033 1.627-2.88 2.68-0.847 1.06-1.53 2.267-2.05 3.62v0c-0.46 1.107-0.803 2.307-1.03 3.6-0.227 1.293-0.34 2.657-0.34 4.09v0 4.78c0 1.533 0.127 2.983 0.38 4.35 0.253 1.367 0.613 2.62 1.08 3.76v0c0.493 1.14 1.093 2.18 1.8 3.12 0.707 0.947 1.517 1.753 2.43 2.42v0c0.993 0.72 2.11 1.27 3.35 1.65 1.247 0.38 2.603 0.57 4.07 0.57v0c1.853 0 3.547-0.273 5.08-0.82 1.527-0.54 2.843-1.317 3.95-2.33v0c1.107-1.007 1.99-2.227 2.65-3.66 0.66-1.433 1.047-3.043 1.16-4.83zM100.07-13.28h5.2l6.69 13.28h7.35v-0.32l-7.64-14.67c0.973-0.44 1.857-0.96 2.65-1.56 0.787-0.607 1.467-1.317 2.04-2.13v0c0.553-0.793 0.98-1.7 1.28-2.72 0.3-1.013 0.45-2.157 0.45-3.43v0c0-1.76-0.303-3.307-0.91-4.64-0.613-1.333-1.48-2.447-2.6-3.34v0c-1.14-0.9-2.51-1.58-4.11-2.04-1.593-0.467-3.373-0.7-5.34-0.7v0h-11.92v35.55h6.86zM105.15-18.85h-5.08v-11.13h5.06c0.94 0 1.777 0.113 2.51 0.34 0.733 0.227 1.353 0.553 1.86 0.98v0c0.567 0.473 0.993 1.07 1.28 1.79 0.287 0.727 0.43 1.56 0.43 2.5v0c0 0.787-0.11 1.497-0.33 2.13-0.22 0.633-0.543 1.177-0.97 1.63v0c-0.5 0.573-1.153 1.01-1.96 1.31-0.807 0.3-1.74 0.45-2.8 0.45zM130.03-7.42h10.67l2.07 7.42h7.23l-11.43-35.55h-6.22l-11.65 35.55h7.23zM139.09-13.26h-7.38l3.74-13.08zM160.55-14.72h15.23v-5.57h-15.23v-9.67h17.14v-5.59h-24.03v35.55h6.89zM198.39-29.96h10.96v-5.59h-28.66v5.59h10.81v29.96h6.89z" fill="#23263b" fill-rule="nonzero" stroke="none" stroke-width="1" stroke-linecap="butt" stroke-linejoin="miter" stroke-miterlimit="10" stroke-dasharray="" stroke-dashoffset="0" font-family="none" font-weight="none" font-size="none" text-anchor="none" style="mix-blend-mode: normal" data-fill-palette-color="primary" opacity="1"></path></g></svg></g></svg></g></svg></g></svg></g></svg></g><defs></defs></svg><rect width="395.52" height="75.92260274751303" fill="none" stroke="none" visibility="hidden"></rect></g></svg></g></svg>